<?xml version="1.0" standalone="no"?>
<!DOCTYPE svg PUBLIC "-//W3C//DTD SVG 20010904//EN"
 "http://www.w3.org/TR/2001/REC-SVG-20010904/DTD/svg10.dtd">
<svg version="1.0" xmlns="http://www.w3.org/2000/svg"
 width="230.000000pt" height="230.000000pt" viewBox="0 0 230.000000 230.000000"
 preserveAspectRatio="xMidYMid meet">
<metadata>
Created by potrace 1.14, written by Peter Selinger 2001-2017
</metadata>
<g transform="translate(0.000000,230.000000) scale(0.100000,-0.100000)"
fill="#000000" stroke="none">
<path d="M615 2046 c-11 -8 -24 -12 -30 -10 -6 3 -22 -7 -34 -20 -13 -14 -28
-23 -32 -20 -4 2 -13 -4 -18 -15 -6 -11 -18 -27 -27 -36 -31 -30 -64 -86 -64
-105 0 -11 -4 -20 -9 -20 -19 0 -27 -108 -18 -219 4 -47 14 -76 35 -112 34
-53 47 -88 35 -90 -18 -3 -54 -9 -70 -12 -30 -5 -77 -27 -95 -44 -10 -9 -18
-13 -18 -9 0 5 -16 -12 -36 -36 -20 -23 -52 -57 -70 -75 -19 -17 -34 -38 -34
-46 0 -8 -7 -18 -16 -21 -8 -3 -13 -9 -10 -14 2 -4 1 -14 -4 -22 -4 -7 -4 -23
0 -35 5 -13 5 -26 -1 -32 -16 -16 -6 -133 12 -133 5 0 9 -11 9 -25 0 -14 5
-25 10 -25 6 0 10 -4 10 -10 0 -5 11 -20 25 -34 14 -14 25 -34 25 -44 0 -11
12 -28 27 -37 16 -10 32 -24 36 -32 5 -7 12 -11 18 -8 5 4 12 -2 16 -12 10
-27 52 -63 74 -63 11 0 22 -7 25 -15 4 -8 12 -15 19 -15 8 0 20 -7 29 -15 8
-9 19 -16 23 -17 4 0 17 -4 28 -8 11 -4 45 -16 75 -25 30 -10 65 -23 77 -28
12 -5 32 -11 45 -12 13 -1 23 -3 23 -4 0 -3 19 -7 50 -13 11 -2 25 -6 30 -9 6
-4 27 -9 47 -13 21 -4 41 -12 45 -19 9 -14 61 -35 118 -48 22 -5 45 -11 51
-12 7 -2 18 -8 26 -14 8 -7 27 -11 43 -9 17 2 33 -1 37 -7 8 -13 171 -17 218
-5 19 5 44 10 55 12 23 3 95 26 110 34 5 3 18 7 28 7 10 1 23 8 28 16 5 8 9
10 9 6 0 -10 149 99 173 127 80 91 107 108 170 107 10 0 23 9 30 20 6 10 21
19 33 19 29 0 134 113 164 175 30 61 36 174 14 240 -9 25 -19 45 -23 45 -16 0
-68 -57 -80 -87 -8 -18 -20 -33 -27 -33 -8 0 -14 -6 -14 -12 0 -15 -71 -86
-141 -141 l-46 -37 -38 16 c-21 8 -45 22 -53 31 -8 8 -26 19 -39 24 -12 4 -23
15 -23 24 0 8 -4 15 -9 15 -12 0 -81 67 -81 78 0 4 -16 23 -35 42 -19 19 -35
40 -35 47 0 7 -6 16 -13 20 -7 4 -20 19 -28 33 -9 14 -29 37 -44 53 -15 15
-25 27 -22 27 3 0 -7 14 -21 30 -15 17 -32 30 -39 30 -7 0 -13 7 -13 15 0 8
-6 15 -14 15 -7 0 -25 15 -39 33 -15 20 -45 40 -77 52 -29 11 -54 25 -57 32
-3 6 -19 15 -36 19 -18 3 -34 10 -37 15 -3 4 -21 10 -40 12 -19 2 -42 7 -50
11 -17 7 -151 3 -165 -6 -6 -3 -22 -8 -37 -12 -15 -3 -50 -20 -78 -36 -28 -17
-49 -26 -45 -20 3 5 2 10 -4 10 -28 0 -48 180 -26 235 7 17 10 35 8 42 -2 6 1
14 6 18 6 3 11 15 11 26 0 11 12 42 26 69 14 27 23 54 19 60 -4 6 -1 17 5 25
13 16 4 75 -11 75 -6 0 -8 4 -5 9 6 10 -27 34 -60 45 -11 3 -28 0 -39 -8z"/>
</g>
</svg>
